<?xml version="1.0" encoding="iso-8859-1"?>
<!-- Generator: Adobe Illustrator 19.0.0, SVG Export Plug-In . SVG Version: 6.00 Build 0)  -->
<svg xmlns="http://www.w3.org/2000/svg" xmlns:xlink="http://www.w3.org/1999/xlink" version="1.1" id="Layer_1" x="0px" y="0px" viewBox="0 0 511.997 511.997" style="enable-background:new 0 0 511.997 511.997;" xml:space="preserve" width="512px" height="512px">
<g>
	<g>
		<g>
			
				<rect x="76.77" y="389.646" transform="matrix(-0.9771 -0.213 0.213 -0.9771 88.1025 804.4476)" width="21.227" height="15.665" fill="#FFFFFF"/>
			<path d="M445.153,102c-8.399-38.527-46.577-63.035-85.102-54.637c-14.895,3.248-28.378,11.216-38.417,22.617     c-7.265-0.662-14.49-0.22-21.539,1.317c-12.464,2.717-23.448,8.565-32.339,16.519c-3.219-29.754-25.045-55.519-55.854-62.236     v0.001c-7.05-1.537-14.274-1.978-21.539-1.317c-10.038-11.401-23.521-19.369-38.417-22.617     c-38.526-8.396-76.703,16.111-85.102,54.638C66.277,58.879,7.215,431.484,7.215,431.484l159.617,34.798l82.757-295.107     l95.578,340.822l159.617-34.798C504.783,477.2,445.718,104.591,445.153,102z M155.737,447.832L25.006,419.33l4.211-26.5     l35.747,7.793l3.336-15.305l-36.621-7.985L74.65,106.893c4.889,8.571,11.559,16.185,19.767,22.214l-5.311,24.361     c-2.558,11.739-0.394,23.771,6.098,33.881c6.49,10.11,16.53,17.086,28.268,19.646c3.217,0.701,6.455,1.047,9.67,1.047     c8.517,0,16.871-2.432,24.211-7.144c10.11-6.49,17.086-16.53,19.646-28.268l1.737-7.964c0.907,0.24,1.808,0.458,2.704,0.654     c20.532,4.477,40.949-0.406,56.824-11.763L155.737,447.832z M251.264,107.189l-1.666,5.941c-0.758,1.769-1.459,3.564-2.074,5.395     c-9.016,19.883-29.025,32.781-50.845,32.78c-3.928-0.001-7.916-0.418-11.906-1.289c-2.814-0.613-5.732-1.533-8.92-2.81     l-8.594-3.445l-5.567,25.534c-1.668,7.65-6.214,14.193-12.804,18.423c-6.588,4.23-14.43,5.642-22.081,3.973     c-7.65-1.668-14.193-6.214-18.424-12.804c-4.23-6.589-5.641-14.431-3.974-22.081l7.619-34.949l-4.704-2.917     c-18.204-11.284-28.22-31.93-26.192-52.85l1.053-6.623c5.748-26.012,28.886-43.802,54.518-43.802     c3.928,0,7.916,0.418,11.906,1.288c12.784,2.786,24.237,10.029,32.249,20.393l2.822,3.65l4.56-0.699     c6.868-1.053,13.705-0.853,20.325,0.589C238.599,47.434,257.722,77.156,251.264,107.189z M260.732,152.902     c-1.345-6.256-1.573-12.496-0.826-18.517l4.491-16.014c0.034-0.102,0.074-0.201,0.109-0.303     c7.058-15.479,21.063-27.571,38.927-31.465c6.619-1.443,13.458-1.641,20.325-0.589l4.56,0.699l2.822-3.65     c8.012-10.363,19.465-17.606,32.249-20.393c30.033-6.546,59.798,12.52,66.424,42.521l1.052,6.617     c2.028,20.92-7.988,41.565-26.192,52.851l-4.704,2.917l7.619,34.949c1.668,7.65,0.257,15.492-3.974,22.081     c-4.23,6.589-10.773,11.136-18.424,12.804c-7.648,1.671-15.492,0.257-22.081-3.973c-6.588-4.23-11.136-10.773-12.804-18.423     l-5.567-25.534l-8.593,3.445c-3.188,1.278-6.106,2.197-8.92,2.81c-27.916,6.086-55.579-9.958-64.67-36.333L260.732,152.902z      M273.737,199.28c11.92,8.529,26.404,13.406,41.577,13.405c5.029-0.001,10.136-0.536,15.245-1.65     c0.897-0.195,1.797-0.412,2.704-0.653l1.737,7.963c2.56,11.738,9.536,21.777,19.646,28.268     c7.339,4.712,15.692,7.145,24.211,7.144c3.214,0,6.454-0.346,9.67-1.047c11.739-2.56,21.777-9.536,28.268-19.647     c6.491-10.11,8.656-22.142,6.098-33.881l-5.311-24.36c8.208-6.029,14.878-13.642,19.766-22.214l42.971,270.442l-36.621,7.985     l3.336,15.305l35.747-7.793l4.211,26.5l-130.731,28.5L273.737,199.28z" fill="#FFFFFF"/>
			<rect x="416.782" y="432.63" transform="matrix(-0.213 -0.977 0.977 -0.213 81.9919 952.5269)" width="15.663" height="21.225" fill="#FFFFFF"/>
		</g>
	</g>
</g>
<g>
</g>
<g>
</g>
<g>
</g>
<g>
</g>
<g>
</g>
<g>
</g>
<g>
</g>
<g>
</g>
<g>
</g>
<g>
</g>
<g>
</g>
<g>
</g>
<g>
</g>
<g>
</g>
<g>
</g>
</svg>
