<?xml version="1.0" encoding="utf-8"?>
<!-- Generator: Adobe Illustrator 18.1.1, SVG Export Plug-In . SVG Version: 6.00 Build 0)  -->
<svg version="1.1" id="Layer_1" xmlns="http://www.w3.org/2000/svg" xmlns:xlink="http://www.w3.org/1999/xlink" x="0px" y="0px"
	 viewBox="382 130.9 603.9 890.2" enable-background="new 382 130.9 603.9 890.2" xml:space="preserve">
<g>
	<g>
		<polygon fill="#562670" points="661.2,246.4 775.5,217.6 600.9,388.9 		"/>
		<polygon fill="#562670" points="775.5,217.6 749.1,130.9 917.9,395.3 		"/>
		<polygon fill="#562670" points="775.5,217.6 855,459.5 917.9,395.3 		"/>
		<polygon fill="#562670" points="732.5,355.5 775.5,217.6 855,459.5 		"/>
		<polygon fill="#562670" points="789.6,607.1 855,459.5 732.5,355.5 		"/>
		<polygon fill="#562670" points="917.9,395.3 855,459.5 876.9,684.1 		"/>
		<polygon fill="#562670" points="789.6,607.1 876.9,684.1 855,459.5 		"/>
		<polygon fill="#562670" points="775.5,217.6 661.2,246.4 749.1,130.9 		"/>
		<polygon fill="#562670" points="661.2,246.4 600.9,388.9 606,481.3 732.5,355.5 775.5,217.6 		"/>
		<polygon fill="#E31955" points="671.5,435.8 732.5,355.5 789.6,607.1 		"/>
		<polygon fill="#E31955" points="606,481.3 671.5,435.8 732.5,355.5 		"/>
		<polygon fill="#E31955" points="600.9,388.9 606,481.3 516.2,472.4 		"/>
		<polygon fill="#E31955" points="644.5,285.6 576.5,393.4 516.2,472.4 600.9,388.9 		"/>
		<polygon fill="#E31955" points="671.5,435.8 625.9,629.6 744.6,668.7 		"/>
		<polygon fill="#E31955" points="625.9,629.6 671.5,435.8 744.6,668.7 674.1,476.2 		"/>
		<polygon fill="#E31955" points="789.6,607.1 744.6,668.7 671.5,435.8 		"/>
		<polygon fill="#E31955" points="606,481.3 671.5,435.8 625.9,629.6 		"/>
		<polygon fill="#E31955" points="525.2,593 606,481.3 625.9,629.6 		"/>
		<polygon fill="#E31955" points="516.2,472.4 525.2,593 606,481.3 		"/>
		<polygon fill="#E31955" points="576.5,393.4 484.7,315.1 516.2,472.4 		"/>
		<polygon fill="#E31955" points="382.7,476.2 484.7,315.1 516.2,472.4 		"/>
		<polygon fill="#E31955" points="382.7,476.2 396.2,546.2 516.2,472.4 		"/>
		<polygon fill="#E31955" points="396.2,546.2 525.2,593 516.2,472.4 		"/>
		<polygon fill="#E31955" points="477,675.2 525.2,593 396.2,546.2 		"/>
		<polygon fill="#E31955" points="625.9,629.6 525.2,593 477,675.2 536.1,634.1 		"/>
		<polygon fill="#E31955" points="744.6,753.5 744.6,668.7 625.9,629.6 536.1,634.1 		"/>
		<polygon fill="#F89A1C" points="887.8,607.1 876.9,684.1 986,579.5 		"/>
		<polygon fill="#F89A1C" points="744.6,756 801.8,650.8 789.6,607.1 744.6,668.7 		"/>
		<polygon fill="#F89A1C" points="876.9,684.1 789.6,607.1 801.8,650.8 		"/>
		<polygon fill="#F89A1C" points="477,675.2 616.3,899.1 536.1,634.1 		"/>
		<polygon fill="#F89A1C" points="536.1,634.1 616.3,899.1 744.6,753.5 		"/>
		<polygon fill="#F89A1C" points="744.6,756 842.2,899.1 801.8,650.8 		"/>
		<polygon fill="#F89A1C" points="876.9,684.1 801.8,650.8 842.2,899.1 		"/>
		<polygon fill="#F89A1C" points="986,579.5 842.2,899.1 876.9,684.1 		"/>
		<polygon fill="#562670" points="600.9,388.9 775.5,217.6 732.5,355.5 606,481.3 		"/>
		<polygon fill="#F89A1C" points="616.3,899.1 737.6,970.4 744.6,753.5 		"/>
		<polygon fill="#F89A1C" points="737.6,970.4 744.6,753.5 842.2,899.1 		"/>
		<polygon fill="#562670" points="732.5,355.5 775.5,217.6 854.4,459.5 778,264.4 		"/>
		<polygon fill="#E31955" points="382.7,476.2 484.7,315.1 516.2,472.4 479,341.4 		"/>
		<polygon fill="#562670" points="661.2,246.4 749.1,130.9 775.5,217.6 746.6,150.2 		"/>
		<polygon fill="#F89A1C" points="616.3,899.1 536.1,634.1 744.6,753.5 563,666.8 		"/>
		<polygon fill="#E31955" points="516.2,472.4 396.2,546.2 525.2,593 425,550 		"/>
		<polygon fill="#F89A1C" points="616.3,899.1 744.6,753.5 737.6,970.4 730.5,797.1 		"/>
		<polygon fill="#F89A1C" points="876.9,684.1 986,579.5 949.4,659.1 962.9,616.1 		"/>
		<polygon fill="#E31955" points="536.1,634.1 625.9,629.6 744.6,753.5 		"/>
	</g>
	<g>
		<polygon fill="#FFFFFF" points="661.2,246.4 774.8,217.6 600.9,388.9 		"/>
		<polygon fill="#3E1E5D" points="774.8,217.6 748.5,130.9 917.9,395.3 		"/>
		<polygon fill="#5F2A7F" points="774.8,217.6 854.4,459.5 917.9,395.3 		"/>
		<polygon fill="#6F2A81" points="732.5,355.5 774.8,217.6 854.4,459.5 		"/>
		<polygon fill="#562670" points="788.9,607.1 854.4,459.5 732.5,355.5 		"/>
		<polygon fill="#3E1E5D" points="917.9,395.3 854.4,459.5 876.2,684.1 		"/>
		<polygon fill="#5F2A7F" points="788.9,607.1 876.2,684.1 854.4,459.5 		"/>
		<polygon fill="#97509E" points="774.8,217.6 661.2,246.4 748.5,130.9 		"/>
		<polygon opacity="0.8" fill="#862C90" enable-background="new    " points="661.2,246.4 600.9,388.9 606,481.3 732.5,355.5 
			774.8,217.6 		"/>
		<polygon fill="#C31F47" points="671.5,435.8 732.5,355.5 788.9,607.1 		"/>
		<polygon fill="#F0617F" points="606,481.3 671.5,435.8 732.5,355.5 		"/>
		<polygon fill="#E31955" points="600.9,388.9 606,481.3 515.5,472.4 		"/>
		<polygon fill="#EE3C57" points="644.5,285.6 576.5,393.4 515.5,472.4 600.9,388.9 		"/>
		<polygon fill="#EE3C57" points="671.5,435.8 625.9,629.6 744,668.7 		"/>
		<polygon fill="#F27B86" points="625.9,629.6 671.5,435.8 744,668.7 673.4,476.2 		"/>
		<polygon fill="#E31955" points="788.9,607.1 744,668.7 671.5,435.8 		"/>
		<polygon fill="#EF5E7C" points="606,481.3 671.5,435.8 625.9,629.6 		"/>
		<polygon fill="#E31955" points="525.2,593 606,481.3 625.9,629.6 		"/>
		<polygon fill="#EE3C57" points="515.5,472.4 525.2,593 606,481.3 		"/>
		<polygon fill="#C31F47" points="576.5,393.4 484.1,315.1 515.5,472.4 		"/>
		<polygon fill="#EE3C57" points="382,476.2 484.1,315.1 515.5,472.4 		"/>
		<polygon fill="#EF5E7C" points="382,476.2 395.5,546.2 515.5,472.4 		"/>
		<polygon fill="#E31955" points="395.5,546.2 525.2,593 515.5,472.4 		"/>
		<polygon fill="#C81E50" points="477,675.2 525.2,593 395.5,546.2 		"/>
		<polygon fill="#EE3C57" points="625.9,629.6 525.2,593 477,675.2 535.4,634.1 		"/>
		<polygon fill="#E31955" points="744,753.5 744,668.7 625.9,629.6 535.4,634.1 		"/>
		<polygon fill="#ED4224" points="887.8,607.1 876.2,684.1 986,579.5 		"/>
		<polygon fill="#F89A1C" points="744,756 801.8,650.8 788.9,607.1 744,668.7 		"/>
		<polygon fill="#EB4924" points="876.2,684.1 788.9,607.1 801.8,650.8 		"/>
		<polygon fill="#FCB614" points="477,675.2 616.3,898.5 535.4,634.1 		"/>
		<polygon fill="#F89A1C" points="535.4,634.1 616.3,898.5 744,753.5 		"/>
		<polygon fill="#F47E20" points="744,756 842.2,898.5 801.8,650.8 		"/>
		<polygon fill="#ED4224" points="876.2,684.1 801.8,650.8 842.2,898.5 		"/>
		<polygon fill="#EF5123" points="986,579.5 842.2,898.5 876.2,684.1 		"/>
		<polygon fill="#97509E" points="600.9,388.9 774.8,217.6 732.5,355.5 606,481.3 		"/>
		<polygon fill="#F47E20" points="616.3,898.5 736.9,970.4 744,753.5 		"/>
		<polygon fill="#EF5123" points="736.9,970.4 744,753.5 842.2,898.5 		"/>
		<polygon opacity="0.9" fill="#9F5BA3" enable-background="new    " points="732.5,355.5 774.8,217.6 854.4,459.5 777.4,264.4 		
			"/>
		<polygon fill="#F5A1B8" points="382,476.2 484.1,315.1 515.5,472.4 479,341.4 		"/>
		<polygon fill="#CB9BC6" points="661.2,246.4 748.5,130.9 774.8,217.6 746.6,150.2 		"/>
		<polygon fill="#FFD267" points="616.3,898.5 535.4,634.1 744,753.5 563,666.8 		"/>
		<polygon fill="#F27B86" points="515.5,472.4 395.5,546.2 525.2,593 424.4,550 		"/>
		<polygon opacity="0.8" fill="#FCB614" enable-background="new    " points="616.3,898.5 744,753.5 736.9,970.4 730.5,797.1 		"/>
		<polygon fill="#F89A1C" points="876.2,684.1 986,579.5 948.7,658.5 962.2,616.1 		"/>
		<polygon fill="#C31F47" points="535.4,634.1 625.9,629.6 744,753.5 		"/>
	</g>
	<polygon opacity="0.4" enable-background="new    " points="665.1,1012.1 613.7,998 675.3,983.2 733.1,987.1 771,983.2 860.2,998 
		817.2,1017.2 750.4,1010.8 723.5,1021.1 	"/>
</g>
</svg>
